<svg xmlns="http://www.w3.org/2000/svg"><symbol id="behance-icon" viewBox="0 0 430.1 430.1"><path d="M227.6 198.3v.5h-.3c0-.1.2-.3.3-.5z"/><path fill="none" d="M227.3 198.8h.3v-.5c-.1.2-.3.4-.3.5zm0 0h.3v-.5c-.1.2-.3.4-.3.5zm0 0h.3v-.5c-.1.2-.3.4-.3.5z"/><path fill="#585858" d="M203.3.8h25.2a12.3 12.3 0 0 0 3.2.7c30.2 2.1 58.9 9.9 85.1 24.7 70.5 39.6 108.8 100 113.8 180.7 2.4 38.8-6.2 75.8-24.9 109.9-33.4 60.6-84.3 97.7-152.3 110.8-8.2 1.5-16.6 2.2-24.9 3.4h-25.2a13 13 0 0 0-3.3-.7c-26.4-1.8-51.7-8.1-75.3-19.7-66-32.6-106.4-85-120.5-157.3-1.6-8.2-2.3-16.5-3.4-24.8v-25.2a15.3 15.3 0 0 0 .7-3.6A202.8 202.8 0 0 1 26.1 115C59.5 54.4 110.3 17.3 178.4 4.2 186.6 2.7 195 2 203.3.8zM58.8 311.4h5.4c30 0 59.9.2 89.9-.1a115.1 115.1 0 0 0 24.1-2.3c19.4-4.2 34.3-14.6 40.6-34.3a69.6 69.6 0 0 0-2.2-49.6 30.8 30.8 0 0 0-23-18.9l-5.5-.9c20-7.9 26.9-17.5 27.1-36.8.3-22.3-10-39.1-28.6-47.2-9.2-4-18.9-5-28.7-5-31.8-.2-63.6-.1-95.3-.1l-3.8.3zm213.1-60.9h100.5a11.9 11.9 0 0 0 .5-2.8c-.8-10.5-.5-21.3-2.7-31.6-4.6-22.2-16.9-38.7-39.2-46.3-11.9-4-24.2-4.5-36.5-3.3-21.9 2.1-39.8 11.4-51.5 30.4-12.8 20.7-16.4 43.3-10.7 66.9s21.1 41.4 45.8 48.2c17.9 5 36 4.8 54 .2 13.1-3.3 24.7-9.7 32.2-21.7 5.1-8.1 7.2-17 6.9-26.9h-33.9c-1 8.4-5.1 14.1-12.3 17.3s-17 4.3-25.9 3.1c-17.5-2.3-27.9-14.8-27.2-33.5zM343.1 128h-79.9v23.5h79.9z"/><path fill="#585858" d="M103.6 276.6v-52.1h52.2c15.2 0 23.9 8.2 24.7 23.5a56.3 56.3 0 0 1-.1 7.1c-1.3 13.9-8.5 21.2-22.5 21.4-18 .4-36.1.1-54.3.1zm-.1-82.1v-43.2l4.2-.2h49.5c8.6 0 13.4 3.4 15.5 11.6a38.3 38.3 0 0 1-.7 22c-1.9 5.9-6.1 9.4-12.4 9.5-12.2.3-24.3.3-36.5.3zm231.3 29.8h-63.1c1.9-14.8 14.2-32.1 38.5-29.5a27.8 27.8 0 0 1 24.6 29.5z"/></symbol><symbol id="linkedin-icon" viewBox="0 0 430.1 430.1"><path fill="#585858" d="M381 78.2a222.2 222.2 0 0 0-29.1-29.1 215.3 215.3 0 0 0-273.7 0 222.2 222.2 0 0 0-29.1 29.1 215.3 215.3 0 0 0 0 273.7A222.2 222.2 0 0 0 78.2 381a215.3 215.3 0 0 0 273.7 0l29.1-29.1a215.3 215.3 0 0 0 0-273.7zM149.7 326.9H99.6V177.1h50.1zm-25-170.3h-.4c-16.8 0-27.7-11.5-27.7-25.9s11.2-25.9 28.4-25.9 27.7 11.2 28 25.9-10.9 25.9-28.3 25.9zm205.8 170.3h-50.1v-80.1c0-20.2-7.3-33.9-25.4-33.9-13.9 0-22.1 9.2-25.7 18.2-1.4 3.2-1.7 7.7-1.7 12.1v83.7h-50.1s.6-135.8 0-149.8h50.1v21.2c6.6-10.2 18.5-24.7 45.2-24.7 33 0 57.7 21.4 57.7 67.4z"/><path d="M227.6 198.3v.5h-.3c0-.1.2-.3.3-.5z"/><path fill="none" d="M227.3 198.8h.3v-.5c-.1.2-.3.4-.3.5zm0 0h.3v-.5c-.1.2-.3.4-.3.5zm0 0h.3v-.5c-.1.2-.3.4-.3.5z"/></symbol><symbol id="github-icon" viewBox="0 0 430.1 430.1"><path fill="#585858" d="M401.3 107.9q28.8 49.5 28.8 108 0 70.4-41 126.4t-106 77.7c-5 1-8.7.3-11.1-1.9a11.5 11.5 0 0 1-3.5-8.4v-59.1c0-18.1-4.8-31.4-14.5-39.8a195.7 195.7 0 0 0 28.7-5 117.6 117.6 0 0 0 26.3-10.9 78.9 78.9 0 0 0 22.7-18.7c6.1-7.3 11-17.1 14.8-29.4s5.8-26.2 5.8-42.1q0-33.9-22.2-57.7c7-17 6.2-36-2.2-57.1-5.2-1.7-12.8-.7-22.7 3.1a143.3 143.3 0 0 0-25.7 12.3l-10.7 6.7a201.5 201.5 0 0 0-107.5 0c-3-2.1-7-4.6-11.9-7.6s-12.8-6.5-23.4-10.7-18.7-5.5-24.1-3.8Q89.6 121.6 100 147q-22.2 23.9-22.2 57.7c0 15.8 2 29.8 5.8 42s8.7 21.9 14.7 29.4a75.5 75.5 0 0 0 22.5 18.8 119.5 119.5 0 0 0 26.3 10.9 195.7 195.7 0 0 0 28.7 5c-7.4 6.7-12 16.3-13.7 28.9a62.1 62.1 0 0 1-12.6 4.2 81.7 81.7 0 0 1-15.9 1.4c-6.2 0-12.3-2-18.4-6.1s-11.2-9.8-15.5-17.5a46.1 46.1 0 0 0-13.6-14.5c-5.5-3.7-10.1-6-13.9-6.7l-5.6-.9c-3.9 0-6.6.4-8.1 1.3s-1.9 1.9-1.4 3.2a17 17 0 0 0 2.5 3.9 23.3 23.3 0 0 0 3.7 3.4l1.9 1.4c4.1 1.9 8.2 5.4 12.2 10.6a66.8 66.8 0 0 1 8.8 14.3l2.8 6.4a36.3 36.3 0 0 0 12.4 17.3 42.7 42.7 0 0 0 18.7 8.4 121.3 121.3 0 0 0 19.5 1.9 86.6 86.6 0 0 0 15.5-.9l6.5-1.2c0 8.3 0 16.6.1 24.9s.1 14.6.1 15.2a11.2 11.2 0 0 1-3.6 8.4c-2.4 2.2-6.2 2.9-11.2 1.9q-64.9-21.6-106-77.7T0 215.9q0-58.5 28.8-108a215.1 215.1 0 0 1 78.3-78.2C140.1 10.5 176 .8 215.1.8S290 10.4 323 29.7a215.1 215.1 0 0 1 78.3 78.2z"/><path d="M227.6 198.3v.5h-.3c0-.1.2-.3.3-.5z"/></symbol><symbol id="email-icon" viewBox="0 0 430.1 430.1"><path fill="#585858" d="M214.6.8C96.1.8 0 96.9 0 215.5s96.1 214.6 214.6 214.6S429.3 334 429.3 215.5 333.2.8 214.6.8zm96.7 119.3l-96.7 76.5-100-76.5zm10 190.8H104.7V152.4l99.8 75.7a17.1 17.1 0 0 0 9.9 3.1 14 14 0 0 0 8.8-3.2l98.1-78.1z"/></symbol></svg>
