<svg xmlns="http://www.w3.org/2000/svg" id="sketch_layer" width="3in" height="3in" viewBox="0 0 216 216"><path fill="#000" d="M174.4 116.6c10.9-8.7 25.3-9.9 37.7-4.7-9.5-12.4-29.9-7.4-41.5-.6-10 5.8-17.6 15.5-24.5 25.6-1.8-4.4-2.8-11.3-6.9-14.1s-11.7-.5-15.5 2.8a46.3 46.3 0 0 0-8.3 10.4c-1.5 2.6-5.4 10.1 2 7.7 3.7-1.1 3.8-6.7 6.1-9.5s7.2-8.6 9.3-8.4 4.7 9.2 5.6 11.6c2.6 6.8 2.3 9.3-1.4 15.3s-6.8 10.2-10.3 15.1-5.2 8.6-8.8 11.1-11 3.1-15.3 4-11.7 2.3-17.6 3.2c-9.4 1.6-24.7 6.6-29.1-4.9s1.1-21.8 2.9-31.9c3.8-3.8 2.1-12.1 7.5-13.2 3.1-.6 7.2 1.1 10.5.7a28 28 0 0 0 9.4-3 57.3 57.3 0 0 0 15.7-12.9c4.7-5.4 5.7-12.1 6.9-19s-1.5-13.4-7.2-18.5a34.9 34.9 0 0 0-6.5-4.3c-1.8-1-6.4-1.7-7.4-3.6s1.4-6.6 1.9-8.5c1.1-4.2 1.9-8.3 2.9-12.5l6.4-30.9c-1.2-2.2 2-7.3 3-10.2s3.2-8.5 2.7-13C97.5 14.5 92.5 29.2 87.8 44c-2.2 6.9-4.2 14-6.1 21-.6 2.5-.8 7.8-3 9.6s-5.5.7-8.1.3C56.7 73 36.9 77.3 26.3 87.2c-5.8 5.5-9.8 12-13.3 19.1-.8 1.6-3 6.1-4.5 10.1a57.2 57.2 0 0 0-3 10.3h-.1l-.8 3.9c-.5 3.7-.4 7.6-.6 10.2a75.1 75.1 0 0 0 2 21.7c4.1 15.1 13.9 27.6 26.1 37.1 21.6 16.7 51.3 16.5 73.2 1a114.3 114.3 0 0 0 15.5-13.1c6-6.1 9.6-7.7 18-9.5s15.8-4.4 23.3-4.4 12.2 4.7 19 4.8c3.3.1 18-2 12.9-7.3-3.6-3.9-11.8-3.4-16.3-2.3-7.2 2-9.7 2-15.1-3.7-3.7-3.7-9.5-10.4-11-15.5s5.9-13.4 9-17.9a69.4 69.4 0 0 1 13.8-15.1zM85.5 81.7c5 3.5 11.7 6.7 14.4 12.6s.4 12.9-2.3 18.1c-5.5 10.9-19 21.3-31.6 19.2zM45.1 201.4C20.8 189 9 164.5 11.2 138c2.1-24.5 14-53.3 40.6-58.9 6.2-1.3 16.9-3.4 22.7-.1 3 1.6 2.6.3 2.1 4.1-.3 1.9-1.5 4.1-2.2 5.9-4.8 12.7-11.2 27.1-13.2 40.5-2.6-.6-14.4-11.6-15.2-5.6s11.1 7 12.9 9.7-2.6 14.4-3 16.4c-1.7 6.9-3.6 13.7-4 20.9-.3 4.9.6 18.4 5 21.4s13.3-.7 17.6-1.5c6.1-1.1 11.9-1.1 18-1.9 2.9-.4 18.8-5.3 19.9-3.7-18.5 18.6-42.1 29.1-67.3 16.2zm136.7-27.9c-.2 1.4-7.2.5-7.1-.7zm-21.2-2.5c-9.7.5-19.1 2.8-28.7 4.4l14.7-21.3a75.9 75.9 0 0 0 14 16.9z"/><path fill="#000" d="M136.7 84.5a19.5 19.5 0 0 0 1.4-4.7c.1-1.6-1.8-2.6-.8-4.3s7.2-1.3 9.1.3a7.4 7.4 0 0 1 .5 10.4c-3.3 3.5-6.7.3-10.2-1.7zm-50.5 59.4c6.2-.2 7.7 7.9.6 6.6-4.4-.8-6.7-7.1-.6-6.6z"/></svg>
