<svg id="sketch_layer" data-name="sketch layer" xmlns="http://www.w3.org/2000/svg" width="3in" height="3in" viewBox="0 0 216 216"><title>logo</title><path d="M174.4,119.2c10.9-8.7,25.3-9.9,37.7-4.7-9.5-12.4-29.9-7.4-41.5-.6-10,5.8-17.6,15.5-24.5,25.6-1.8-4.4-2.8-11.3-6.9-14.1s-11.7-.4-15.5,2.8a46.3,46.3,0,0,0-8.3,10.4c-1.5,2.6-5.4,10.1,2,7.7,3.7-1.1,3.8-6.7,6.1-9.5s7.2-8.6,9.3-8.4,4.7,9.2,5.6,11.6c2.6,6.8,2.3,9.3-1.4,15.3s-6.8,10.2-10.3,15.2-5.2,8.5-8.8,11-11,3.1-15.3,4-11.7,2.3-17.6,3.2c-9.4,1.6-24.7,6.6-29.1-4.9S57,162,58.8,151.9c3.8-3.8,2.1-12.1,7.5-13.2,3.1-.6,7.2,1.1,10.5.7a28,28,0,0,0,9.4-3,57.3,57.3,0,0,0,15.7-12.9c4.7-5.4,5.7-12.1,6.9-19s-1.5-13.4-7.2-18.5a34.9,34.9,0,0,0-6.5-4.3c-1.8-1-6.4-1.7-7.4-3.6s1.4-6.5,1.9-8.5c1.1-4.2,1.9-8.3,2.9-12.5l6.4-30.9c-1.2-2.2,2-7.2,3-10.2s3.2-8.5,2.7-13C97.5,17.1,92.5,31.8,87.8,46.6c-2.2,6.9-4.2,14-6.1,21-.6,2.5-.8,7.8-3,9.6s-5.5.7-8.1.4c-13.9-2-33.7,2.3-44.3,12.2-5.8,5.5-9.8,12-13.3,19.1-.8,1.6-3,6.2-4.5,10.1h0a57.2,57.2,0,0,0-3,10.3H5.4l-.8,3.9h0c-.5,3.7-.4,7.6-.6,10.2a76.1,76.1,0,0,0,2,21.8c4.1,15,13.9,27.5,26.1,37,21.6,16.7,51.3,16.5,73.2,1a114.3,114.3,0,0,0,15.5-13.1c6-6.1,9.6-7.7,18-9.5s15.8-4.4,23.3-4.4,12.2,4.7,19,4.9c3.3,0,18-2.1,12.9-7.4-3.6-3.8-11.8-3.4-16.3-2.2-7.2,1.9-9.7,1.9-15.1-3.8-3.7-3.7-9.5-10.4-11-15.5s5.9-13.4,9-17.9A69.4,69.4,0,0,1,174.4,119.2ZM85.5,84.3c5,3.5,11.7,6.8,14.4,12.6s.4,12.9-2.3,18.2c-5.5,10.8-19,21.3-31.6,19.1ZM45.1,204C20.8,191.6,9,167.1,11.2,140.6c2.1-24.5,14-53.3,40.6-58.9,6.2-1.3,16.9-3.4,22.7-.1,3,1.6,2.6.3,2.1,4.1-.3,1.9-1.5,4.1-2.2,5.9-4.8,12.7-11.2,27.2-13.2,40.5-2.6-.6-14.4-11.6-15.2-5.6s11.1,7,12.9,9.8-2.6,14.4-3,16.3c-1.7,6.9-3.6,13.8-4,20.9-.3,4.9.6,18.5,5,21.4s13.3-.7,17.6-1.5c6.1-1.1,11.9-1.1,18-1.9,2.9-.4,18.8-5.3,19.9-3.7C93.9,206.4,70.3,216.9,45.1,204Zm136.7-27.9c-.2,1.4-7.2.5-7.1-.7Zm-21.2-2.5c-9.7.5-19.1,2.8-28.7,4.5l14.7-21.4A75.9,75.9,0,0,0,160.6,173.6Z" stroke="#000" stroke-miterlimit="10" stroke-width="2"/><path d="M136.7,84.5a19.5,19.5,0,0,0,1.4-4.7c.1-1.6-1.8-2.6-.8-4.3s7.2-1.3,9.1.3a7.4,7.4,0,0,1,.5,10.4C143.6,89.7,140.2,86.5,136.7,84.5Z" stroke="#000" stroke-miterlimit="10" stroke-width="2"/><path d="M86.2,143.9c6.2-.2,7.7,7.9.6,6.6C82.4,149.7,80.1,143.4,86.2,143.9Z" stroke="#000" stroke-miterlimit="10" stroke-width="2"/></svg>